PathFileType	4	(X/Y/Z)	/Users/niels/Desktop/University/Third Semester/Perception and Action/Exam/Gymnastics Motion Tracking/Code for Gym Tracking/Analyzed Data/Webcam_Backflip/id10_2_trajectory_Sports2D/id10_2_trajectory_Sports2D_px_person00.trc
DataRate	CameraRate	NumFrames	NumMarkers	Units	OrigDataRate	OrigDataStartFrame	OrigNumFrames
29.714285714285715	29.714285714285715	8	22	m	29.714285714285715	91	105
Frame#	Time	Hip			RHip			RKnee			RAnkle			RBigToe			RSmallToe			RHeel			LHip			LKnee			LAnkle			LBigToe			LSmallToe			LHeel			Neck			Head			Nose			RShoulder			RElbow			RWrist			LShoulder			LElbow			LWrist		
		X1	Y1	Z1	X2	Y2	Z2	X3	Y3	Z3	X4	Y4	Z4	X5	Y5	Z5	X6	Y6	Z6	X7	Y7	Z7	X8	Y8	Z8	X9	Y9	Z9	X10	Y10	Z10	X11	Y11	Z11	X12	Y12	Z12	X13	Y13	Z13	X14	Y14	Z14	X15	Y15	Z15	X16	Y16	Z16	X17	Y17	Z17	X18	Y18	Z18	X19	Y19	Z19	X20	Y20	Z20	X21	Y21	Z21	X22	Y22	Z22
91	3.0625	0.9703825443425353	-0.5688046352445808	0.0	0.9702131390174598	-0.5670029702735072	0.0	0.9766166109142624	-0.8059856958214874	0.0	0.8441859740333202	-1.009107251358528	0.0	0.9286438258522289	-1.0683570994073583	0.0	0.9010655662280824	-1.0694748169762505	0.0	0.8133928440945438	-1.0312215926641097	0.0	0.9831585434997724	-0.5717138308444576	0.0	1.0130573686436604	-0.794976439607906	0.0	1.025110250045141	-1.0116182889703598	0.0	1.1246133865490553	-1.042196907926574	0.0	1.1101490049569198	-1.0320321820517013	0.0	1.007630586042234	-1.0430882905670278	0.0	1.0145387125448466	-0.268658689261521	0.0	1.0467404267090135	-0.13381510375889072	0.0	1.0727117323935862	-0.2153245623132439	0.0	1.0076068254679074	-0.30422809802541745	0.0	1.0773195598537706	-0.4584793030141617	0.0	1.1932274300470698	-0.5608405375323443	0.0	0.9950432857044675	-0.3014987577862656	0.0	1.051280166402835	-0.44865465759838585	0.0	1.1203151303124703	-0.5592841342608216	0.0
92	3.096153846153846	0.9800254482708729	-0.566685357195961	0.0	0.9801759809572959	-0.5647662994664249	0.0	0.9993577298515024	-0.802777823949531	0.0	0.8629568967574098	-1.002249283152294	0.0	0.9443015642063507	-1.0653359969560825	0.0	0.9168801678018372	-1.064563037060147	0.0	0.8322436595763334	-1.0250906632387047	0.0	0.9927148389466129	-0.5696188175168883	0.0	1.0207288824468144	-0.7919734283651666	0.0	1.024625319793795	-1.0100205059692546	0.0	1.1244555107221852	-1.0430460789125824	0.0	1.109676528071615	-1.0322776491976007	0.0	1.006140513248714	-1.0422691475505494	0.0	1.0223903660129312	-0.26756535262194364	0.0	1.0536930803317026	-0.13411981157726602	0.0	1.0773889979938227	-0.21427964524231072	0.0	1.014024276029438	-0.30249166364661	0.0	1.081896427847875	-0.4565317929184966	0.0	1.197501294317581	-0.5594830505390164	0.0	1.0068228113680953	-0.30042887493910475	0.0	1.0561954222862555	-0.44784632691263565	0.0	1.1106218553266187	-0.5610014715258944	0.0
93	3.129807692307692	0.9895889095113203	-0.5648315323431724	0.0	0.9900570213424832	-0.5626747964101281	0.0	1.0201441562414968	-0.7993020249737279	0.0	0.886664511226951	-0.9985101117293449	0.0	0.9667759880131621	-1.0623690155722791	0.0	0.9398426820067941	-1.0610434681086007	0.0	0.8564558403729899	-1.022689751006571	0.0	1.000946597120422	-0.5674884292057685	0.0	1.030089097505155	-0.788945186690826	0.0	1.024388649509071	-1.007742920389567	0.0	1.124368027592587	-1.0427080386514782	0.0	1.1092161082765162	-1.0316260807039324	0.0	1.004116336356967	-1.0408755102795797	0.0	1.0297826553809082	-0.2667214081687494	0.0	1.0597658284318103	-0.13432024650170657	0.0	1.0818431102547175	-0.21333188325286073	0.0	1.019694011618042	-0.3013574654494319	0.0	1.0846038146844919	-0.4559197315047286	0.0	1.19925703800707	-0.5600980804088159	0.0	1.0193774997399199	-0.29996220704963267	0.0	1.060556319127395	-0.4479280740259652	0.0	1.1043430013816358	-0.5619688777144208	0.0
94	3.1634615384615383	0.9988882786504661	-0.5633038917881292	0.0	0.9997205049486073	-0.5608940228059884	0.0	1.0386318560506371	-0.7956463658667484	0.0	0.9153318038357209	-0.9980265907313709	0.0	0.9965870190871775	-1.0596445671329355	0.0	0.9704460229566367	-1.0593353838546204	0.0	0.8857180735837841	-1.0241120526869267	0.0	1.0071098814408443	-0.5653240420718568	0.0	1.0397715784008763	-0.7860777830378429	0.0	1.0241754797510128	-1.0045938837970194	0.0	1.1241382272357214	-1.0407419419514137	0.0	1.1087639772334805	-1.0296181900012487	0.0	1.0014241290002708	-1.0384242007925615	0.0	1.036801243165169	-0.2661451551863367	0.0	1.0652500944913823	-0.13435544976030264	0.0	1.0864226001619646	-0.2125311435115497	0.0	1.0248295165692194	-0.3010820247916517	0.0	1.0859100561186132	-0.4568366365120777	0.0	1.1985263352833277	-0.5625351407941428	0.0	1.0317718082006835	-0.3001002792554935	0.0	1.065094210811994	-0.44827562073365906	0.0	1.1031218835117822	-0.5599984989840928	0.0
95	3.1971153846153846	1.00769517148123	-0.5622077192996949	0.0	1.0090270775900934	-0.5596336952487018	0.0	1.0552594685244678	-0.7921773831343571	0.0	0.9482373451775905	-1.0000307939724773	0.0	1.0328737594271762	-1.057090207662136	0.0	1.0078143942050048	-1.0591819597751935	0.0	0.9189948183753707	-1.0282795500362134	0.0	1.0109947440336504	-0.5631676654884921	0.0	1.0472042774308143	-0.7836183530259392	0.0	1.0238204427476563	-1.0007101709257775	0.0	1.123570076800839	-1.0369703384604343	0.0	1.1083696052955294	-1.0260525414595232	0.0	0.998467181236935	-1.0347906401641496	0.0	1.0434369276869782	-0.2658109492524727	0.0	1.0704236345663096	-0.13425733953768915	0.0	1.091276411171972	-0.21181032614148765	0.0	1.0295608449521536	-0.3015730282968512	0.0	1.0862395585577937	-0.4590345185922658	0.0	1.1953432689340744	-0.5665741833782993	0.0	1.0427515517170665	-0.30061194923367435	0.0	1.0703958970694245	-0.4480453117098341	0.0	1.1071040731990023	-0.5531496771261297	0.0
96	3.230769230769231	1.0158574711372228	-0.5617246715075243	0.0	1.0179829475572697	-0.5591651648579335	0.0	1.0707895748153562	-0.7895509195989197	0.0	0.9836930934901469	-1.0032853736917322	0.0	1.0730027201655747	-1.0545835384472593	0.0	1.0492341120981108	-1.059800465670028	0.0	0.9546953518071547	-1.033465869109348	0.0	1.0130593385808837	-0.5612000030512101	0.0	1.0500701337119027	-0.7819140364449181	0.0	1.023400031091326	-0.9969974242597718	0.0	1.1223779915807521	-1.0319781957856946	0.0	1.107774513967264	-1.0215241637314973	0.0	0.9963324482258115	-1.0308397385182053	0.0	1.0497184659681384	-0.2656698341111803	0.0	1.07556153660025	-0.13411140174047867	0.0	1.096399962994169	-0.211071041315993	0.0	1.0340368592480262	-0.302552384708919	0.0	1.0859637490488423	-0.46208297377501795	0.0	1.1899819470554942	-0.5720235184120168	0.0	1.0515886109952008	-0.301237376952864	0.0	1.0765969240360227	-0.44686829525139754	0.0	1.1152391000888258	-0.5411625581113778	0.0
97	3.2644230769230766	1.0234616001800678	-0.5620776970298205	0.0	1.0267238554501261	-0.5597325912237614	0.0	1.0856514459997473	-0.7884015230322577	0.0	1.0199073275300856	-1.0066497492523983	0.0	1.113715120430171	-1.0520501370936546	0.0	1.0912571167044258	-1.0603011099538433	0.0	0.9915797160637613	-1.0381208065972383	0.0	1.014512095121411	-0.5597899067206344	0.0	1.048353728771924	-0.781337089915237	0.0	1.0231243230943767	-0.9948403152348516	0.0	1.120071393364454	-1.0271183551918268	0.0	1.1062208519266084	-1.0173227281635253	0.0	0.9960736159749619	-1.0281798030613554	0.0	1.0558173493201048	-0.26567726603695246	0.0	1.080906547775328	-0.13399614315444555	0.0	1.1017511313812482	-0.21026049578963069	0.0	1.0384803473485884	-0.30382255296759664	0.0	1.0853442174512373	-0.4656494948950278	0.0	1.1829627723943352	-0.5787268187092669	0.0	1.058581195428301	-0.3018985160885695	0.0	1.0836965625779633	-0.4452275687113423	0.0	1.1261167990770993	-0.5270620850422952	0.0
98	3.298076923076923	1.030884016991079	-0.5634337482665486	0.0	1.0352956218857539	-0.5614260874739799	0.0	1.099523799235523	-0.7889858106013299	0.0	1.0560023558390426	-1.009478360736667	0.0	1.1530160469534185	-1.049333114434811	0.0	1.1316601924425136	-1.0599909325037633	0.0	1.0294087573479413	-1.0414952701689022	0.0	1.0172217869700475	-0.5594430737234559	0.0	1.0445474920404942	-0.7820946168652156	0.0	1.023087276308411	-0.995045427429561	0.0	1.1162759031547935	-1.0236555052140166	0.0	1.1030972506741525	-1.0145266637942487	0.0	0.9977018583250828	-1.027922935494895	0.0	1.0619896964058364	-0.26580781298249095	0.0	1.086575297562882	-0.13399707449825218	0.0	1.1073599034918167	-0.20942003483253915	0.0	1.0430634757663408	-0.3053487608764215	0.0	1.0843754464680226	-0.4694967730920217	0.0	1.1746448571136847	-0.5864687171606356	0.0	1.0650180098326643	-0.3027318956747535	0.0	1.092059519639937	-0.44419068747121077	0.0	1.1389087514777312	-0.5173484087708722	0.0
